<svg width="36" height="38" viewBox="0 0 36 38" fill="none" xmlns="http://www.w3.org/2000/svg">
<rect width="36" height="37.4784" rx="18" fill="#121A1C"/>
<path d="M9.10748 11.0248C8.92403 11.2312 8.94264 11.5472 9.14904 11.7307C9.35544 11.9141 9.67148 11.8955 9.85493 11.6891L9.10748 11.0248ZM9.85493 11.6891C11.7395 9.5687 14.4395 8.26184 17.5227 8.26184V7.26184C14.1448 7.26184 11.1757 8.69775 9.10748 11.0248L9.85493 11.6891ZM17.5227 8.26184C20.6104 8.26184 23.3786 9.60494 25.2636 11.7314L26.0119 11.0681C23.9437 8.73489 20.9063 7.26184 17.5227 7.26184V8.26184Z" fill="white"/>
<path d="M10.2867 13.3783C10.3985 13.6308 10.6938 13.7448 10.9463 13.6331C11.1988 13.5213 11.3129 13.226 11.2011 12.9735L10.2867 13.3783ZM7.43233 10.9931L7.26487 10.522L7.43233 10.9931ZM6.32491 19.6973L6.38789 19.2013H6.38788L6.32491 19.6973ZM11.2468 19.1088L11.6866 19.3466C11.8004 19.1361 11.7491 18.8744 11.5642 18.7225C11.3792 18.5706 11.1126 18.571 10.9281 18.7235L11.2468 19.1088ZM12.529 21.3787C12.8047 21.3619 13.0145 21.1249 12.9977 20.8493C12.9809 20.5736 12.7439 20.3638 12.4683 20.3806L12.529 21.3787ZM11.2011 12.9735C11.0169 12.5574 10.608 11.7829 9.97989 11.1889C9.34018 10.5839 8.40742 10.1159 7.26487 10.522L7.5998 11.4642C8.26336 11.2284 8.81429 11.4629 9.29279 11.9155C9.78288 12.3789 10.1267 13.0168 10.2867 13.3783L11.2011 12.9735ZM7.26487 10.522C5.98025 10.9786 4.9306 12.1057 4.21077 13.3517C3.48808 14.6028 3.04834 16.0579 3.04834 17.2738H4.04834C4.04834 16.2696 4.42178 14.9856 5.07667 13.852C5.73443 12.7133 6.62678 11.8101 7.5998 11.4642L7.26487 10.522ZM3.04834 17.2738C3.04834 18.1139 3.54933 18.8089 4.15124 19.2894C4.75776 19.7736 5.53764 20.1014 6.26194 20.1934L6.38788 19.2013C5.84962 19.133 5.24122 18.88 4.77509 18.5079C4.30436 18.1321 4.04834 17.6955 4.04834 17.2738H3.04834ZM6.26194 20.1934C9.01171 20.5424 10.5552 20.3295 11.5654 19.4942L10.9281 18.7235C10.2692 19.2685 9.11637 19.5477 6.38789 19.2013L6.26194 20.1934ZM10.8069 18.8711C10.7015 19.066 10.6031 19.3096 10.5502 19.5702C10.4979 19.8278 10.4834 20.1355 10.5847 20.4349C10.6916 20.751 10.9158 21.0204 11.2662 21.1897C11.6006 21.3512 12.0234 21.4095 12.529 21.3787L12.4683 20.3806C12.0601 20.4054 11.8265 20.3498 11.7011 20.2892C11.5917 20.2363 11.5526 20.1755 11.532 20.1145C11.5057 20.0369 11.4994 19.9209 11.5302 19.7693C11.5603 19.6208 11.6199 19.47 11.6866 19.3466L10.8069 18.8711Z" fill="white"/>
<path d="M10.7921 14.6738C10.6637 14.071 9.03731 12.8495 7.72125 12.9672C6.67672 13.0606 5.07307 15.2301 5.806 16.9795C6.53893 18.729 9.08448 18.4469 9.81839 17.1882C10.7386 15.61 9.39575 13.0581 7.72125 15.8293" stroke="white" stroke-linecap="round"/>
<path d="M24.3377 13.2134C24.6819 12.4358 25.795 10.3575 27.6011 10.9995C29.8588 11.8019 31.4851 15.06 31.4851 17.2802C31.4851 18.542 31.4477 19.3559 28.7085 19.7037C25.9694 20.0514 24.6212 19.8053 23.7867 19.1152C24.1308 19.7518 24.3623 20.9973 22.5348 20.886" stroke="white" stroke-linecap="round" stroke-linejoin="round"/>
<path d="M24.2468 14.6764C24.3751 14.0737 26.0015 12.8522 27.3176 12.9698C28.3621 13.0632 29.9657 15.2328 29.2328 16.9822C28.4999 18.7316 25.9543 18.4496 25.2204 17.1909C24.3003 15.6127 25.6431 13.0608 27.3176 15.832" stroke="white" stroke-linecap="round"/>
<path d="M13.5813 18.5792C12.7547 19.7535 12.2524 21.3016 12.2524 22.9982C12.2524 26.6679 14.6021 29.6427 17.5006 29.6427C20.3992 29.6427 22.7489 26.6679 22.7489 22.9982C22.7489 21.3016 22.2466 19.7535 21.42 18.5792" stroke="white" stroke-linecap="round"/>
<path d="M12.5282 22.9235C12.2978 22.7712 11.9876 22.8345 11.8353 23.0648C11.6831 23.2952 11.7463 23.6054 11.9767 23.7577L12.5282 22.9235ZM12.2524 23.3406C11.9767 23.7577 11.9769 23.7578 11.9771 23.7579C11.9772 23.758 11.9774 23.7581 11.9776 23.7582C11.9779 23.7585 11.9782 23.7587 11.9786 23.7589C11.9793 23.7594 11.9802 23.7599 11.9811 23.7606C11.983 23.7618 11.9853 23.7633 11.988 23.765C11.9934 23.7684 12.0004 23.7729 12.0091 23.7783C12.0265 23.789 12.0505 23.8035 12.0812 23.8211C12.1426 23.8563 12.2305 23.9042 12.3455 23.9603C12.5755 24.0727 12.9133 24.2182 13.362 24.3623C14.26 24.6507 15.5982 24.9319 17.3991 24.9319V23.9319C15.7042 23.9319 14.469 23.6675 13.6677 23.4102C13.2667 23.2814 12.9733 23.1541 12.7845 23.0619C12.6901 23.0157 12.6218 22.9783 12.5792 22.9539C12.5579 22.9416 12.543 22.9326 12.5345 22.9274C12.5303 22.9248 12.5277 22.9231 12.5266 22.9224C12.5261 22.9221 12.5259 22.922 12.5262 22.9222C12.5263 22.9223 12.5266 22.9224 12.5269 22.9226C12.5271 22.9227 12.5272 22.9229 12.5275 22.923C12.5276 22.9231 12.5278 22.9232 12.5278 22.9232C12.528 22.9234 12.5282 22.9235 12.2524 23.3406ZM17.3991 24.9319C19.1998 24.9319 20.5861 24.6508 21.5299 24.3648C22.0016 24.2218 22.3624 24.0778 22.609 23.9674C22.7322 23.9122 22.8269 23.8654 22.8926 23.8313C22.9255 23.8142 22.9511 23.8004 22.9694 23.7902C22.9786 23.7851 22.986 23.781 22.9915 23.7778C22.9942 23.7763 22.9965 23.7749 22.9984 23.7739C22.9993 23.7733 23.0001 23.7729 23.0008 23.7725C23.0011 23.7723 23.0014 23.7721 23.0017 23.7719C23.0019 23.7718 23.0021 23.7717 23.0021 23.7717C23.0023 23.7716 23.0025 23.7715 22.7489 23.3406C22.4952 22.9097 22.4954 22.9096 22.4955 22.9095C22.4956 22.9095 22.4957 22.9094 22.4958 22.9093C22.496 22.9092 22.4961 22.9091 22.4962 22.9091C22.4965 22.9089 22.4966 22.9089 22.4966 22.9089C22.4967 22.9088 22.4963 22.9091 22.4954 22.9096C22.4937 22.9105 22.4902 22.9125 22.4849 22.9154C22.4744 22.9213 22.4568 22.9309 22.4321 22.9436C22.3828 22.9692 22.3053 23.0077 22.2002 23.0548C21.9898 23.149 21.6687 23.2778 21.2399 23.4077C20.3829 23.6674 19.0943 23.9319 17.3991 23.9319V24.9319Z" fill="white"/>
<path d="M17.613 20.1405L17.6344 22.9117" stroke="white" stroke-linecap="round"/>
<circle cx="13.9911" cy="13.8285" r="2.96671" stroke="white"/>
<circle cx="21.0529" cy="13.8285" r="2.96671" stroke="white"/>
<path d="M17.0835 12.9619H17.7544M17.1616 13.8928H17.8325" stroke="white"/>
<path d="M14.8956 18.584C14.703 18.3522 14.5114 17.8307 15.2861 17.5996C16.2544 17.3107 17.3404 17.7548 17.5277 18.3646" stroke="white" stroke-linecap="round"/>
<path d="M20.1596 18.584C20.3522 18.3522 20.5437 17.8307 19.7691 17.5996C18.8008 17.3107 17.7147 17.7548 17.5275 18.3646" stroke="white" stroke-linecap="round"/>
<path d="M16.3296 18.6246C16.3279 18.6438 16.3224 18.6726 16.3069 18.7122C16.2896 18.7562 16.265 18.7982 16.238 18.832C16.2098 18.8671 16.1887 18.8815 16.1843 18.8839C16.1793 18.8868 16.1644 18.8935 16.1332 18.8831C16.1009 18.8722 16.0601 18.8443 16.0306 18.7924C15.9958 18.7311 15.9682 18.6732 15.949 18.6218C15.9465 18.615 15.9441 18.6086 15.942 18.6024C15.9447 18.602 15.9475 18.6015 15.9503 18.6011C16.0191 18.5903 16.0992 18.5872 16.1766 18.5941C16.2433 18.6 16.295 18.6121 16.3296 18.6246ZM16.3639 18.64C16.3649 18.6406 16.3654 18.641 16.3653 18.641L16.3639 18.64Z" stroke="white"/>
<path d="M18.6506 18.6285C18.6523 18.6477 18.6579 18.6765 18.6734 18.7161C18.6906 18.7601 18.7152 18.8021 18.7423 18.8359C18.7704 18.871 18.7915 18.8854 18.7959 18.8878C18.8009 18.8907 18.8158 18.8974 18.847 18.887C18.8793 18.8762 18.9201 18.8483 18.9496 18.7963C18.9844 18.735 19.012 18.6771 19.0313 18.6257C19.0338 18.6189 19.0361 18.6125 19.0382 18.6063C19.0355 18.6059 19.0328 18.6055 19.03 18.605C18.9611 18.5943 18.881 18.5911 18.8036 18.598C18.7369 18.6039 18.6852 18.616 18.6506 18.6285ZM18.6163 18.6439C18.6153 18.6445 18.6149 18.6449 18.6149 18.6449L18.6163 18.6439Z" stroke="white"/>
</svg>
