<svg width="36" height="36" viewBox="0 0 36 36" fill="none" xmlns="http://www.w3.org/2000/svg">
<rect width="36" height="36" rx="18" fill="#EBEBEB"/>
<path d="M9.1142 10.5694C8.92666 10.7721 8.93894 11.0884 9.14162 11.276C9.34431 11.4635 9.66066 11.4512 9.8482 11.2485L9.1142 10.5694ZM9.8482 11.2485C11.7306 9.21415 14.4324 7.95569 17.5227 7.95569V6.95569C14.1519 6.95569 11.1846 8.33179 9.1142 10.5694L9.8482 11.2485ZM17.5227 7.95569C20.6176 7.95569 23.3875 9.24898 25.2703 11.2892L26.0052 10.611C23.9348 8.36746 20.8991 6.95569 17.5227 6.95569V7.95569Z" fill="black"/>
<path d="M10.2898 12.8654C10.4054 13.1161 10.7024 13.2258 10.9532 13.1102C11.204 12.9946 11.3136 12.6976 11.198 12.4468L10.2898 12.8654ZM7.43233 10.5594L7.27078 10.0863L7.43233 10.5594ZM6.32491 18.9203L6.38544 18.424L6.38544 18.424L6.32491 18.9203ZM11.2468 18.355L11.6825 18.6003C11.7998 18.3919 11.7531 18.1297 11.5712 17.9746C11.3893 17.8194 11.123 17.8148 10.9358 17.9635L11.2468 18.355ZM12.5278 20.5551C12.8035 20.539 13.0139 20.3025 12.9978 20.0268C12.9817 19.7511 12.7451 19.5407 12.4695 19.5568L12.5278 20.5551ZM11.198 12.4468C11.0128 12.0449 10.6023 11.2984 9.97254 10.7264C9.33039 10.143 8.40345 9.69954 7.27078 10.0863L7.59389 11.0326C8.26733 10.8027 8.82409 11.0341 9.30015 11.4666C9.78859 11.9102 10.1309 12.5205 10.2898 12.8654L11.198 12.4468ZM7.27078 10.0863C5.98911 10.5239 4.93776 11.6062 4.21524 12.8076C3.49093 14.0119 3.04834 15.4157 3.04834 16.5924H4.04834C4.04834 15.6366 4.41892 14.4092 5.0722 13.323C5.72728 12.2337 6.61792 11.3659 7.59389 11.0326L7.27078 10.0863ZM3.04834 16.5924C3.04834 17.4163 3.559 18.0899 4.15893 18.5499C4.76572 19.0152 5.54391 19.3288 6.26439 19.4166L6.38544 18.424C5.84335 18.3579 5.23326 18.1135 4.7674 17.7563C4.29468 17.3939 4.04834 16.9805 4.04834 16.5924H3.04834ZM6.26439 19.4166C9.01207 19.7517 10.5498 19.5472 11.5578 18.7465L10.9358 17.9635C10.2746 18.4887 9.11601 18.757 6.38544 18.424L6.26439 19.4166ZM10.8111 18.1098C10.7047 18.2988 10.6048 18.5358 10.551 18.7904C10.4978 19.0419 10.4825 19.3452 10.5867 19.641C10.6968 19.9536 10.9254 20.2135 11.2732 20.3748C11.605 20.5288 12.0245 20.5846 12.5278 20.5551L12.4695 19.5568C12.059 19.5808 11.8221 19.5271 11.6941 19.4677C11.5821 19.4158 11.5474 19.3583 11.5299 19.3088C11.5066 19.2425 11.4995 19.1386 11.5294 18.9973C11.5586 18.8588 11.6168 18.717 11.6825 18.6003L10.8111 18.1098Z" fill="black"/>
<path d="M10.7921 14.0949C10.6637 13.5159 9.03731 12.3426 7.72125 12.4556C6.67672 12.5453 5.07307 14.6293 5.806 16.3097C6.53893 17.9901 9.08448 17.7192 9.81839 16.5101C10.7386 14.9942 9.39575 12.543 7.72125 15.2049" stroke="black" stroke-linecap="round"/>
<path d="M24.3377 12.6922C24.6819 11.9453 25.795 9.94894 27.6011 10.5656C29.8588 11.3364 31.4851 14.466 31.4851 16.5986C31.4851 17.8106 31.4477 18.5924 28.7085 18.9265C25.9694 19.2605 24.6212 19.0241 23.7867 18.3612C24.1308 18.9727 24.3623 20.169 22.5348 20.0621" stroke="black" stroke-linecap="round" stroke-linejoin="round"/>
<path d="M24.2468 14.0975C24.3751 13.5185 26.0015 12.3451 27.3176 12.4582C28.3621 12.5479 29.9657 14.6319 29.2328 16.3123C28.4999 17.9927 25.9543 17.7218 25.2204 16.5127C24.3003 14.9968 25.6431 12.5455 27.3176 15.2074" stroke="black" stroke-linecap="round"/>
<path d="M13.5813 17.8463C12.7547 18.9742 12.2524 20.4613 12.2524 22.091C12.2524 25.6159 14.6021 28.4734 17.5006 28.4734C20.3992 28.4734 22.7489 25.6159 22.7489 22.091C22.7489 20.4613 22.2466 18.9742 21.42 17.8463" stroke="black" stroke-linecap="round"/>
<path d="M12.5205 21.9977C12.2874 21.8497 11.9784 21.9187 11.8304 22.1518C11.6823 22.3849 11.7513 22.6939 11.9844 22.8419L12.5205 21.9977ZM12.2524 22.4198C11.9844 22.8419 11.9846 22.842 11.9848 22.8421C11.9849 22.8422 11.9851 22.8423 11.9853 22.8424C11.9856 22.8426 11.9859 22.8428 11.9863 22.8431C11.987 22.8435 11.9879 22.8441 11.9888 22.8446C11.9907 22.8458 11.993 22.8472 11.9956 22.8489C12.001 22.8522 12.0081 22.8565 12.0168 22.8616C12.0341 22.8719 12.0581 22.8858 12.0887 22.9027C12.1499 22.9364 12.2378 22.9823 12.3526 23.0362C12.5822 23.144 12.9195 23.2836 13.3675 23.4217C14.2641 23.6983 15.6004 23.9681 17.3991 23.9681V22.9681C15.702 22.9681 14.465 22.7138 13.6622 22.4662C13.2605 22.3423 12.9666 22.2198 12.7775 22.131C12.6829 22.0866 12.6144 22.0506 12.5717 22.027C12.5503 22.0153 12.5354 22.0066 12.5269 22.0015C12.5227 21.999 12.52 21.9974 12.5189 21.9967C12.5184 21.9964 12.5182 21.9963 12.5185 21.9965C12.5186 21.9966 12.5189 21.9967 12.5192 21.9969C12.5194 21.997 12.5195 21.9971 12.5198 21.9973C12.5199 21.9973 12.52 21.9974 12.5201 21.9975C12.5203 21.9976 12.5205 21.9977 12.2524 22.4198ZM17.3991 23.9681C19.1977 23.9681 20.5821 23.6984 21.5247 23.424C21.9957 23.2869 22.356 23.1488 22.6022 23.0429C22.7252 22.9899 22.8198 22.945 22.8854 22.9124C22.9182 22.896 22.9437 22.8827 22.962 22.873C22.9712 22.8681 22.9785 22.8642 22.984 22.8611C22.9867 22.8596 22.989 22.8584 22.9908 22.8573C22.9918 22.8568 22.9926 22.8564 22.9933 22.856C22.9936 22.8558 22.9939 22.8556 22.9942 22.8555C22.9943 22.8554 22.9945 22.8553 22.9946 22.8552C22.9948 22.8551 22.995 22.855 22.7489 22.4198C22.5027 21.9846 22.5029 21.9845 22.5031 21.9844C22.5031 21.9844 22.5033 21.9843 22.5033 21.9842C22.5035 21.9841 22.5037 21.984 22.5038 21.984C22.504 21.9838 22.5041 21.9838 22.5041 21.9838C22.5042 21.9838 22.5037 21.984 22.5029 21.9845C22.5011 21.9854 22.4976 21.9873 22.4923 21.9902C22.4818 21.9958 22.4641 22.005 22.4394 22.0173C22.3899 22.042 22.3123 22.079 22.207 22.1243C21.9963 22.215 21.6746 22.3389 21.2452 22.4639C20.3869 22.7137 19.0965 22.9681 17.3991 22.9681V23.9681Z" fill="black"/>
<path d="M17.613 19.3459L17.6344 22.0078" stroke="black" stroke-linecap="round"/>
<path d="M16.9576 13.2831C16.9576 14.8272 15.6485 16.113 13.9909 16.113C12.3333 16.113 11.0242 14.8272 11.0242 13.2831C11.0242 11.7389 12.3333 10.4531 13.9909 10.4531C15.6485 10.4531 16.9576 11.7389 16.9576 13.2831Z" stroke="black"/>
<path d="M24.0196 13.2831C24.0196 14.8272 22.7105 16.113 21.0529 16.113C19.3953 16.113 18.0862 14.8272 18.0862 13.2831C18.0862 11.7389 19.3953 10.4531 21.0529 10.4531C22.7105 10.4531 24.0196 11.7389 24.0196 13.2831Z" stroke="black"/>
<path d="M17.0835 12.4506H17.7544M17.1616 13.3447H17.8325" stroke="black"/>
<path d="M14.8956 17.8509C14.703 17.6282 14.5114 17.1274 15.2861 16.9054C16.2544 16.6279 17.3404 17.0544 17.5277 17.6402" stroke="black" stroke-linecap="round"/>
<path d="M20.1596 17.8509C20.3522 17.6282 20.5437 17.1274 19.7691 16.9054C18.8008 16.6279 17.7147 17.0544 17.5275 17.6402" stroke="black" stroke-linecap="round"/>
<path d="M16.3197 17.8964C16.3165 17.914 16.3105 17.9358 16.3002 17.961C16.2832 18.0027 16.2588 18.0429 16.2316 18.0754C16.2034 18.1092 16.1819 18.1234 16.1768 18.1262C16.1698 18.1301 16.1546 18.1354 16.1263 18.1263C16.097 18.1169 16.0609 18.093 16.0348 18.0488C16.0005 17.9909 15.9735 17.9364 15.9549 17.8885C15.9538 17.8858 15.9528 17.8833 15.9519 17.8807C15.9543 17.8804 15.9568 17.88 15.9592 17.8796C16.0282 17.8692 16.1083 17.8663 16.1853 17.8728C16.2417 17.8776 16.2869 17.8867 16.3197 17.8964ZM16.367 17.9147C16.3682 17.9154 16.3687 17.9157 16.3687 17.9158C16.3687 17.9158 16.3681 17.9154 16.367 17.9147Z" stroke="black"/>
<path d="M18.6605 17.9001C18.6638 17.9178 18.6698 17.9396 18.68 17.9648C18.697 18.0065 18.7215 18.0467 18.7486 18.0792C18.7768 18.113 18.7983 18.1272 18.8034 18.13C18.8105 18.1338 18.8256 18.1392 18.8539 18.1301C18.8832 18.1207 18.9193 18.0968 18.9455 18.0526C18.9797 17.9946 19.0067 17.9402 19.0254 17.8923C19.0264 17.8896 19.0274 17.8871 19.0283 17.8845C19.0259 17.8841 19.0235 17.8838 19.021 17.8834C18.952 17.873 18.872 17.8701 18.7949 17.8766C18.7385 17.8814 18.6933 17.8905 18.6605 17.9001ZM18.6132 17.9185C18.612 17.9192 18.6115 17.9195 18.6115 17.9195C18.6115 17.9196 18.6121 17.9192 18.6132 17.9185Z" stroke="black"/>
</svg>
